<svg width="34" height="34" viewBox="0 0 34 34" fill="none" xmlns="http://www.w3.org/2000/svg">
<path d="M17 0.333344C7.81671 0.333344 0.333374 7.81668 0.333374 17C0.333374 26.1833 7.81671 33.6667 17 33.6667C26.1834 33.6667 33.6667 26.1833 33.6667 17C33.6667 7.81668 26.1834 0.333344 17 0.333344ZM19.9834 22C20.4667 22.4833 20.4667 23.2833 19.9834 23.7667C19.7334 24.0167 19.4167 24.1333 19.1 24.1333C18.7834 24.1333 18.4667 24.0167 18.2167 23.7667L12.3334 17.8833C11.85 17.4 11.85 16.6 12.3334 16.1167L18.2167 10.2333C18.7 9.75001 19.5 9.75001 19.9834 10.2333C20.4667 10.7167 20.4667 11.5167 19.9834 12L14.9834 17L19.9834 22Z" fill="#081E12"/>
</svg>
