<svg width="101" height="218" viewBox="0 0 101 218" fill="none" xmlns="http://www.w3.org/2000/svg">
<path d="M-125.63 140.697C-124.091 164.113 -117.142 188.99 -99.026 203.157C-81.8394 216.6 -58.6522 217.49 -37.095 217.83C-16.0288 218.165 5.25673 218.475 25.8416 213.853C46.4265 209.231 66.5538 199.179 79.613 182.084C97.6003 158.57 99.421 126.388 100.489 96.4356C101.656 63.584 102.271 28.5075 85.3514 0.637276C71.8824 -21.5132 48.3091 -36.1079 23.4252 -40.9121C4.30829 -44.594 -17.6016 -43.5308 -36.0274 -36.7281C-48.5814 -32.0962 -56.1881 -20.4844 -65.7394 -11.3141C-91.3907 13.2975 -110.164 44.7463 -119.487 79.6554C-124.84 99.5019 -126.917 120.138 -125.63 140.697Z" fill="#D7FFD1"/>
</svg>
