<svg width="311" height="311" viewBox="0 0 311 311" fill="none" xmlns="http://www.w3.org/2000/svg">
<path d="M311 0H0V311H311V0Z" fill="white"/>
<path d="M26.5455 13.2693H12.9998V26.8151H26.5455V13.2693Z" fill="black"/>
<path d="M40.0913 13.2693H26.5455V26.8151H40.0913V13.2693Z" fill="black"/>
<path d="M53.6371 13.2693H40.0913V26.8151H53.6371V13.2693Z" fill="black"/>
<path d="M67.1829 13.2693H53.6371V26.8151H67.1829V13.2693Z" fill="black"/>
<path d="M80.7286 13.2693H67.1829V26.8151H80.7286V13.2693Z" fill="black"/>
<path d="M94.2744 13.2693H80.7286V26.8151H94.2744V13.2693Z" fill="black"/>
<path d="M107.82 13.2693H94.2744V26.8151H107.82V13.2693Z" fill="black"/>
<path d="M134.912 13.2693H121.366V26.8151H134.912V13.2693Z" fill="black"/>
<path d="M162.003 13.2693H148.458V26.8151H162.003V13.2693Z" fill="black"/>
<path d="M175.549 13.2693H162.003V26.8151H175.549V13.2693Z" fill="black"/>
<path d="M189.095 13.2693H175.549V26.8151H189.095V13.2693Z" fill="black"/>
<path d="M216.186 13.2693H202.641V26.8151H216.186V13.2693Z" fill="black"/>
<path d="M229.732 13.2693H216.186V26.8151H229.732V13.2693Z" fill="black"/>
<path d="M243.278 13.2693H229.732V26.8151H243.278V13.2693Z" fill="black"/>
<path d="M256.824 13.2693H243.278V26.8151H256.824V13.2693Z" fill="black"/>
<path d="M270.37 13.2693H256.824V26.8151H270.37V13.2693Z" fill="black"/>
<path d="M283.915 13.2693H270.37V26.8151H283.915V13.2693Z" fill="black"/>
<path d="M297.461 13.2693H283.915V26.8151H297.461V13.2693Z" fill="black"/>
<path d="M26.5455 26.8151H12.9998V40.3609H26.5455V26.8151Z" fill="black"/>
<path d="M107.82 26.8151H94.2744V40.3609H107.82V26.8151Z" fill="black"/>
<path d="M148.458 26.8151H134.912L134.912 40.3609H148.458L148.458 26.8151Z" fill="black"/>
<path d="M162.003 26.8151H148.458L148.458 40.3609H162.003V26.8151Z" fill="black"/>
<path d="M216.186 26.8151H202.641V40.3609H216.186V26.8151Z" fill="black"/>
<path d="M297.461 26.8151H283.915V40.3609H297.461V26.8151Z" fill="black"/>
<path d="M26.5455 40.3609H12.9998V53.9067H26.5455V40.3609Z" fill="black"/>
<path d="M53.6371 40.3609H40.0913V53.9067H53.6371V40.3609Z" fill="black"/>
<path d="M67.1829 40.3609H53.6371V53.9067H67.1829V40.3609Z" fill="black"/>
<path d="M80.7286 40.3609H67.1829V53.9067H80.7286V40.3609Z" fill="black"/>
<path d="M107.82 40.3609H94.2744V53.9067H107.82V40.3609Z" fill="black"/>
<path d="M148.458 40.3609H134.912V53.9067H148.458V40.3609Z" fill="black"/>
<path d="M216.186 40.3609H202.641V53.9067H216.186V40.3609Z" fill="black"/>
<path d="M243.278 40.3609H229.732V53.9067H243.278V40.3609Z" fill="black"/>
<path d="M256.824 40.3609H243.278V53.9067H256.824V40.3609Z" fill="black"/>
<path d="M270.37 40.3609H256.824V53.9067H270.37V40.3609Z" fill="black"/>
<path d="M297.461 40.3609H283.915V53.9067H297.461V40.3609Z" fill="black"/>
<path d="M26.5455 53.9067H12.9998V67.4524H26.5455V53.9067Z" fill="black"/>
<path d="M53.6371 53.9067H40.0913V67.4524H53.6371V53.9067Z" fill="black"/>
<path d="M67.1829 53.9067H53.6371V67.4524H67.1829V53.9067Z" fill="black"/>
<path d="M80.7286 53.9067H67.1829V67.4524H80.7286V53.9067Z" fill="black"/>
<path d="M107.82 53.9067H94.2744V67.4524H107.82V53.9067Z" fill="black"/>
<path d="M134.912 53.9067H121.366V67.4524H134.912L134.912 53.9067Z" fill="black"/>
<path d="M148.458 53.9067H134.912L134.912 67.4524H148.458V53.9067Z" fill="black"/>
<path d="M162.003 53.9067H148.458V67.4524H162.003V53.9067Z" fill="black"/>
<path d="M216.186 53.9067H202.641V67.4524H216.186V53.9067Z" fill="black"/>
<path d="M243.278 53.9067H229.732V67.4524H243.278V53.9067Z" fill="black"/>
<path d="M256.824 53.9067H243.278V67.4524H256.824V53.9067Z" fill="black"/>
<path d="M270.37 53.9067H256.824V67.4524H270.37V53.9067Z" fill="black"/>
<path d="M297.461 53.9067H283.915V67.4524H297.461V53.9067Z" fill="black"/>
<path d="M26.5455 67.4524H12.9998V80.9982H26.5455V67.4524Z" fill="black"/>
<path d="M53.6371 67.4524H40.0913V80.9982H53.6371V67.4524Z" fill="black"/>
<path d="M67.1829 67.4524H53.6371V80.9982H67.1829V67.4524Z" fill="black"/>
<path d="M80.7286 67.4524H67.1829V80.9982H80.7286V67.4524Z" fill="black"/>
<path d="M107.82 67.4524H94.2744V80.9982H107.82V67.4524Z" fill="black"/>
<path d="M162.003 67.4524H148.458L148.458 80.9982H162.003V67.4524Z" fill="black"/>
<path d="M175.549 67.4524H162.003V80.9982H175.549V67.4524Z" fill="black"/>
<path d="M216.186 67.4524H202.641V80.9982H216.186V67.4524Z" fill="black"/>
<path d="M243.278 67.4524H229.732V80.9982H243.278V67.4524Z" fill="black"/>
<path d="M256.824 67.4524H243.278V80.9982H256.824V67.4524Z" fill="black"/>
<path d="M270.37 67.4524H256.824V80.9982H270.37V67.4524Z" fill="black"/>
<path d="M297.461 67.4524H283.915V80.9982H297.461V67.4524Z" fill="black"/>
<path d="M26.5455 80.9982H12.9998V94.544H26.5455V80.9982Z" fill="black"/>
<path d="M107.82 80.9982H94.2744V94.544H107.82V80.9982Z" fill="black"/>
<path d="M134.912 80.9982H121.366V94.544H134.912V80.9982Z" fill="black"/>
<path d="M148.458 80.9982H134.912V94.544H148.458L148.458 80.9982Z" fill="black"/>
<path d="M189.095 80.9982H175.549V94.544H189.095V80.9982Z" fill="black"/>
<path d="M216.186 80.9982H202.641V94.544H216.186V80.9982Z" fill="black"/>
<path d="M297.461 80.9982H283.915V94.544H297.461V80.9982Z" fill="black"/>
<path d="M26.5455 94.544H12.9998V108.09H26.5455V94.544Z" fill="black"/>
<path d="M40.0913 94.544H26.5455V108.09H40.0913V94.544Z" fill="black"/>
<path d="M53.6371 94.544H40.0913V108.09H53.6371V94.544Z" fill="black"/>
<path d="M67.1829 94.544H53.6371V108.09H67.1829V94.544Z" fill="black"/>
<path d="M80.7286 94.544H67.1829V108.09H80.7286V94.544Z" fill="black"/>
<path d="M94.2744 94.544H80.7286V108.09H94.2744V94.544Z" fill="black"/>
<path d="M107.82 94.544H94.2744V108.09H107.82V94.544Z" fill="black"/>
<path d="M134.912 94.544H121.366V108.09H134.912V94.544Z" fill="black"/>
<path d="M162.003 94.544H148.458L148.458 108.09H162.003V94.544Z" fill="black"/>
<path d="M189.095 94.544H175.549V108.09H189.095V94.544Z" fill="black"/>
<path d="M216.186 94.544H202.641V108.09H216.186V94.544Z" fill="black"/>
<path d="M229.732 94.544H216.186V108.09H229.732V94.544Z" fill="black"/>
<path d="M243.278 94.544H229.732V108.09H243.278V94.544Z" fill="black"/>
<path d="M256.824 94.544H243.278V108.09H256.824V94.544Z" fill="black"/>
<path d="M270.37 94.544H256.824V108.09H270.37V94.544Z" fill="black"/>
<path d="M283.915 94.544H270.37V108.09H283.915V94.544Z" fill="black"/>
<path d="M297.461 94.544H283.915V108.09H297.461V94.544Z" fill="black"/>
<path d="M148.458 108.09H134.912L134.912 121.636H148.458L148.458 108.09Z" fill="black"/>
<path d="M162.003 108.09H148.458L148.458 121.636H162.003V108.09Z" fill="black"/>
<path d="M175.549 108.09H162.003V121.636H175.549V108.09Z" fill="black"/>
<path d="M94.2744 121.636H80.7286V135.181H94.2744V121.636Z" fill="black"/>
<path d="M107.82 121.636H94.2744V135.181H107.82V121.636Z" fill="black"/>
<path d="M134.912 121.636L121.366 121.636V135.181H134.912L134.912 121.636Z" fill="black"/>
<path d="M202.641 121.636H189.095V135.181H202.641V121.636Z" fill="black"/>
<path d="M229.732 121.636H216.186V135.181H229.732V121.636Z" fill="black"/>
<path d="M256.824 121.636H243.278V135.181H256.824V121.636Z" fill="black"/>
<path d="M297.461 121.636H283.915V135.181H297.461V121.636Z" fill="black"/>
<path d="M26.5455 135.181H12.9998V148.727H26.5455V135.181Z" fill="black"/>
<path d="M53.6371 135.181H40.0913V148.727H53.6371V135.181Z" fill="black"/>
<path d="M80.7286 135.181L67.1829 135.181V148.727H80.7286V135.181Z" fill="black"/>
<path d="M162.003 135.181H148.458V148.727H162.003V135.181Z" fill="black"/>
<path d="M202.641 135.181H189.095V148.727H202.641V135.181Z" fill="black"/>
<path d="M256.824 135.181H243.278V148.727H256.824V135.181Z" fill="black"/>
<path d="M297.461 135.181H283.915V148.727H297.461V135.181Z" fill="black"/>
<path d="M67.1829 148.727H53.6371V162.273H67.1829V148.727Z" fill="black"/>
<path d="M94.2744 148.727L80.7286 148.727V162.273H94.2744V148.727Z" fill="black"/>
<path d="M107.82 148.727H94.2744V162.273H107.82V148.727Z" fill="black"/>
<path d="M134.912 148.727H121.366V162.273H134.912V148.727Z" fill="black"/>
<path d="M189.095 148.727L175.549 148.727V162.273H189.095V148.727Z" fill="black"/>
<path d="M216.186 148.727L202.641 148.727V162.273H216.186V148.727Z" fill="black"/>
<path d="M229.732 148.727H216.186V162.273H229.732V148.727Z" fill="black"/>
<path d="M256.824 148.727H243.278V162.273H256.824V148.727Z" fill="black"/>
<path d="M283.915 148.727L270.37 148.727V162.273H283.915V148.727Z" fill="black"/>
<path d="M40.0913 162.273H26.5455V175.819H40.0913V162.273Z" fill="black"/>
<path d="M53.6371 162.273L40.0913 162.273V175.819H53.6371V162.273Z" fill="black"/>
<path d="M94.2744 162.273H80.7286V175.819H94.2744V162.273Z" fill="black"/>
<path d="M121.366 162.273H107.82V175.819H121.366L121.366 162.273Z" fill="black"/>
<path d="M175.549 162.273L162.003 162.273V175.819H175.549V162.273Z" fill="black"/>
<path d="M202.641 162.273H189.095V175.819H202.641V162.273Z" fill="black"/>
<path d="M229.732 162.273H216.186V175.819H229.732V162.273Z" fill="black"/>
<path d="M243.278 162.273H229.732V175.819H243.278V162.273Z" fill="black"/>
<path d="M26.5455 175.819H12.9998V189.364H26.5455V175.819Z" fill="black"/>
<path d="M53.6371 175.819H40.0913V189.364H53.6371V175.819Z" fill="black"/>
<path d="M67.1829 175.819H53.6371V189.364H67.1829V175.819Z" fill="black"/>
<path d="M80.7286 175.819H67.1829V189.364H80.7286V175.819Z" fill="black"/>
<path d="M94.2744 175.819H80.7286V189.364H94.2744V175.819Z" fill="black"/>
<path d="M107.82 175.819H94.2744V189.364H107.82V175.819Z" fill="black"/>
<path d="M121.366 175.819H107.82V189.364H121.366V175.819Z" fill="black"/>
<path d="M162.003 175.819H148.458V189.364H162.003L162.003 175.819Z" fill="black"/>
<path d="M189.095 175.819H175.549V189.364H189.095V175.819Z" fill="black"/>
<path d="M229.732 175.819H216.186V189.364H229.732V175.819Z" fill="black"/>
<path d="M270.37 175.819H256.824V189.364H270.37V175.819Z" fill="black"/>
<path d="M297.461 175.819H283.915V189.364H297.461V175.819Z" fill="black"/>
<path d="M134.912 189.364H121.366L121.366 202.91H134.912V189.364Z" fill="black"/>
<path d="M148.458 189.364H134.912V202.91H148.458L148.458 189.364Z" fill="black"/>
<path d="M162.003 189.364H148.458L148.458 202.91H162.003V189.364Z" fill="black"/>
<path d="M216.186 189.364H202.641V202.91H216.186V189.364Z" fill="black"/>
<path d="M243.278 189.364H229.732V202.91H243.278V189.364Z" fill="black"/>
<path d="M256.824 189.364H243.278V202.91H256.824V189.364Z" fill="black"/>
<path d="M270.37 189.364H256.824V202.91H270.37V189.364Z" fill="black"/>
<path d="M283.915 189.364H270.37V202.91H283.915V189.364Z" fill="black"/>
<path d="M26.5455 202.91H12.9998V216.456H26.5455V202.91Z" fill="black"/>
<path d="M40.0913 202.91H26.5455V216.456H40.0913V202.91Z" fill="black"/>
<path d="M53.6371 202.91H40.0913V216.456H53.6371V202.91Z" fill="black"/>
<path d="M67.1829 202.91H53.6371V216.456H67.1829V202.91Z" fill="black"/>
<path d="M80.7286 202.91H67.1829V216.456H80.7286V202.91Z" fill="black"/>
<path d="M94.2744 202.91H80.7286V216.456H94.2744V202.91Z" fill="black"/>
<path d="M107.82 202.91H94.2744V216.456H107.82V202.91Z" fill="black"/>
<path d="M175.549 202.91H162.003L162.003 216.456H175.549V202.91Z" fill="black"/>
<path d="M202.641 202.91H189.095V216.456H202.641V202.91Z" fill="black"/>
<path d="M256.824 202.91H243.278V216.456H256.824V202.91Z" fill="black"/>
<path d="M297.461 202.91H283.915V216.456H297.461V202.91Z" fill="black"/>
<path d="M26.5455 216.456H12.9998V230.002H26.5455V216.456Z" fill="black"/>
<path d="M107.82 216.456H94.2744V230.002H107.82V216.456Z" fill="black"/>
<path d="M134.912 216.456H121.366V230.002H134.912V216.456Z" fill="black"/>
<path d="M162.003 216.456H148.458V230.002H162.003L162.003 216.456Z" fill="black"/>
<path d="M175.549 216.456H162.003L162.003 230.002H175.549V216.456Z" fill="black"/>
<path d="M202.641 216.456H189.095V230.002H202.641V216.456Z" fill="black"/>
<path d="M229.732 216.456H216.186V230.002H229.732V216.456Z" fill="black"/>
<path d="M243.278 216.456H229.732V230.002H243.278V216.456Z" fill="black"/>
<path d="M256.824 216.456H243.278V230.002H256.824V216.456Z" fill="black"/>
<path d="M270.37 216.456H256.824V230.002H270.37V216.456Z" fill="black"/>
<path d="M297.461 216.456H283.915V230.002H297.461V216.456Z" fill="black"/>
<path d="M26.5455 230.002H12.9998V243.548H26.5455V230.002Z" fill="black"/>
<path d="M53.6371 230.002H40.0913V243.548H53.6371V230.002Z" fill="black"/>
<path d="M67.1829 230.002H53.6371V243.548H67.1829V230.002Z" fill="black"/>
<path d="M80.7286 230.002H67.1829V243.548H80.7286V230.002Z" fill="black"/>
<path d="M107.82 230.002H94.2744V243.548H107.82V230.002Z" fill="black"/>
<path d="M189.095 230.002H175.549V243.548H189.095V230.002Z" fill="black"/>
<path d="M216.186 230.002H202.641V243.548H216.186V230.002Z" fill="black"/>
<path d="M229.732 230.002H216.186V243.548H229.732V230.002Z" fill="black"/>
<path d="M256.824 230.002H243.278V243.548H256.824V230.002Z" fill="black"/>
<path d="M270.37 230.002H256.824V243.548H270.37V230.002Z" fill="black"/>
<path d="M26.5455 243.548H12.9998V257.093H26.5455V243.548Z" fill="black"/>
<path d="M53.6371 243.548H40.0913V257.093H53.6371V243.548Z" fill="black"/>
<path d="M67.1829 243.548H53.6371V257.093H67.1829V243.548Z" fill="black"/>
<path d="M80.7286 243.548H67.1829V257.093H80.7286V243.548Z" fill="black"/>
<path d="M107.82 243.548H94.2744V257.093H107.82V243.548Z" fill="black"/>
<path d="M162.003 243.548H148.458V257.093H162.003V243.548Z" fill="black"/>
<path d="M175.549 243.548H162.003V257.093H175.549V243.548Z" fill="black"/>
<path d="M216.186 243.548H202.641V257.093H216.186V243.548Z" fill="black"/>
<path d="M256.824 243.548H243.278V257.093H256.824V243.548Z" fill="black"/>
<path d="M297.461 243.548H283.915V257.093H297.461V243.548Z" fill="black"/>
<path d="M26.5455 257.093H12.9998V270.639H26.5455V257.093Z" fill="black"/>
<path d="M53.6371 257.093H40.0913V270.639H53.6371V257.093Z" fill="black"/>
<path d="M67.1829 257.093H53.6371V270.639H67.1829V257.093Z" fill="black"/>
<path d="M80.7286 257.093H67.1829V270.639H80.7286V257.093Z" fill="black"/>
<path d="M107.82 257.093H94.2744V270.639H107.82V257.093Z" fill="black"/>
<path d="M148.458 257.093H134.912V270.639H148.458L148.458 257.093Z" fill="black"/>
<path d="M202.641 257.093H189.095V270.639H202.641V257.093Z" fill="black"/>
<path d="M216.186 257.093H202.641V270.639H216.186V257.093Z" fill="black"/>
<path d="M256.824 257.093H243.278V270.639H256.824V257.093Z" fill="black"/>
<path d="M270.37 257.093H256.824V270.639H270.37V257.093Z" fill="black"/>
<path d="M26.5455 270.639H12.9998V284.185H26.5455V270.639Z" fill="black"/>
<path d="M107.82 270.639H94.2744V284.185H107.82V270.639Z" fill="black"/>
<path d="M148.458 270.639H134.912V284.185H148.458V270.639Z" fill="black"/>
<path d="M175.549 270.639H162.003V284.185H175.549V270.639Z" fill="black"/>
<path d="M216.186 270.639H202.641V284.185H216.186V270.639Z" fill="black"/>
<path d="M243.278 270.639H229.732V284.185H243.278V270.639Z" fill="black"/>
<path d="M256.824 270.639H243.278V284.185H256.824V270.639Z" fill="black"/>
<path d="M297.461 270.639H283.915V284.185H297.461V270.639Z" fill="black"/>
<path d="M26.5455 284.185H12.9998V297.731H26.5455V284.185Z" fill="black"/>
<path d="M40.0913 284.185H26.5455V297.731H40.0913V284.185Z" fill="black"/>
<path d="M53.6371 284.185H40.0913V297.731H53.6371V284.185Z" fill="black"/>
<path d="M67.1829 284.185H53.6371V297.731H67.1829V284.185Z" fill="black"/>
<path d="M80.7286 284.185H67.1829V297.731H80.7286V284.185Z" fill="black"/>
<path d="M94.2744 284.185H80.7286V297.731H94.2744V284.185Z" fill="black"/>
<path d="M107.82 284.185H94.2744V297.731H107.82V284.185Z" fill="black"/>
<path d="M148.458 284.185H134.912V297.731H148.458V284.185Z" fill="black"/>
<path d="M162.003 284.185H148.458V297.731H162.003L162.003 284.185Z" fill="black"/>
<path d="M229.732 284.185H216.186V297.731H229.732V284.185Z" fill="black"/>
<path d="M256.824 284.185H243.278V297.731H256.824V284.185Z" fill="black"/>
<path d="M270.37 284.185H256.824V297.731H270.37V284.185Z" fill="black"/>
</svg>
